# xmcd
#
# Track frame offsets: 
#        150
#        1500
#        18182
#        34861
#        48770
#        62563
#        77898
#        92954
#        108324
#        125717
#        141131
#        157194
#        173510
#        191582
#        209194
#        224969
#
# Disc length: 3011 seconds
#
# Revision: 0
# Processed by: cddbd v1.5.2PL0 Copyright (c) Steve Scherf et al.
# Submitted via: ExactAudioCopyFreeDBPlugin 1.0
#
DISCID=e20bc110
DTITLE=Clear Soul Forces - Fab 5ive
DYEAR=2015
DGENRE=Hip-Hop
TTITLE0=Intro
TTITLE1=Cheese In The Sky
TTITLE2=Mars On Life
TTITLE3=Tha Numbas
TTITLE4=Orange Faygo
TTITLE5=100%
TTITLE6=Insane
TTITLE7=Gamma Ray
TTITLE8=Kaboom
TTITLE9=Opening Theme
TTITLE10=What Is Rap
TTITLE11=BPSWR
TTITLE12=Get Down
TTITLE13=Blow Ya Mind
TTITLE14=Remain Raw
TTITLE15=Outro
EXTD=
EXTT0=
EXTT1=
EXTT2=
EXTT3=
EXTT4=
EXTT5=
EXTT6=
EXTT7=
EXTT8=
EXTT9=
EXTT10=
EXTT11=
EXTT12=
EXTT13=
EXTT14=
EXTT15=
PLAYORDER=
